<svg id="Layer_1" data-name="Layer 1" xmlns="http://www.w3.org/2000/svg" viewBox="0 0 24.01 24"><defs><style>.cls-1{fill:none;}.cls-2{fill:#fff;}</style></defs><g id="Group_12616" data-name="Group 12616"><rect id="Rectangle_5689" data-name="Rectangle 5689" class="cls-1" width="24" height="24"/><path id="Icon_ionic-ios-arrow-round-back" data-name="Icon ionic-ios-arrow-round-back" class="cls-2" d="M8.7,4.31a1.09,1.09,0,0,1,0,1.53L3.64,10.92H22.93a1.08,1.08,0,1,1,0,2.16H3.64l5.07,5.08a1.1,1.1,0,0,1,0,1.53,1.07,1.07,0,0,1-1.52,0L.31,12.77h0a1.32,1.32,0,0,1-.23-.35A1.15,1.15,0,0,1,0,12a1.07,1.07,0,0,1,.31-.76L7.18,4.33a1.07,1.07,0,0,1,1.5,0Z"/></g></svg>