<svg id="圖層_1" data-name="圖層 1" xmlns="http://www.w3.org/2000/svg" viewBox="0 0 24 24"><defs><style>.cls-1{fill:none;}.cls-2{fill:#fff;}</style></defs><rect class="cls-1" width="24" height="24"/><rect class="cls-1" width="24" height="24"/><rect class="cls-1" width="24" height="24"/><path class="cls-2" d="M23,2.55H1a1,1,0,0,0-1,1V9a.93.93,0,0,0,.84,1H.9a.93.93,0,0,0,.91-.94A.13.13,0,0,0,1.8,9V4.35H22.2v13.4H1.8v-2.2a.92.92,0,0,0-.83-1H.9a.92.92,0,0,0-.9.94v3.06a1,1,0,0,0,1,1H22.91a1,1,0,0,0,1-1v-15A1,1,0,0,0,23,2.55Z" transform="translate(0)"/><path class="cls-2" d="M9.52,8.52v6a.52.52,0,0,0,.27.46h0a.52.52,0,0,0,.54,0l4.92-3a.59.59,0,0,0,.2-.76.77.77,0,0,0-.18-.18L10.36,8A.56.56,0,0,0,9.8,8h0A.56.56,0,0,0,9.52,8.52Z" transform="translate(0)"/><circle class="cls-2" cx="0.93" cy="12.38" r="0.93"/><path class="cls-2" d="M15.81,22.7H8.5a.9.9,0,1,1,0-1.8h7.31a.9.9,0,0,1,0,1.8Z" transform="translate(0)"/></svg>