<svg id="Layer_1" data-name="Layer 1" xmlns="http://www.w3.org/2000/svg" viewBox="0 0 24 24"><defs><style>.cls-1{fill:none;}.cls-2{fill:#019FDE;}</style></defs><g id="Group_10769" data-name="Group 10769"><rect id="Rectangle_9310" data-name="Rectangle 9310" class="cls-1" width="24" height="24"/><path id="Subtraction_41" data-name="Subtraction 41" class="cls-2" d="M18.61,23.33H5.39a1.89,1.89,0,0,1-1.88-1.89h0V2.56A1.89,1.89,0,0,1,5.39.67h9.44V5.39a1,1,0,0,0,.95,1H20.5v15.1a1.89,1.89,0,0,1-1.89,1.89ZM7.09,17.66a.76.76,0,0,0-.75.76.75.75,0,0,0,.75.75H16.9a.75.75,0,0,0,.76-.75.76.76,0,0,0-.76-.76H7.09Zm0-3.77a.76.76,0,0,0,0,1.51H16.9a.76.76,0,1,0,0-1.51H7.09Zm0-3.78a.76.76,0,0,0,0,1.51H16.9a.76.76,0,1,0,0-1.51H7.09Z" transform="translate(0)"/><path id="Path_30674" data-name="Path 30674" class="cls-2" d="M15.78.67,20.5,5.39h-4A.93.93,0,0,1,16,5.15a1.1,1.1,0,0,1-.18-.7Z" transform="translate(0)"/></g></svg>