<svg id="Layer_1" data-name="Layer 1" xmlns="http://www.w3.org/2000/svg" viewBox="0 0 30 30"><defs><style>.cls-1{fill:none;}.cls-2{fill:#0C0C0C;}</style></defs><g id="组_323" data-name="组 323"><path id="bg" class="cls-1" d="M0,0H30V30H0Z"/><g id="组_322" data-name="组 322"><path id="Icon_awesome-laptop" data-name="Icon awesome-laptop" class="cls-2" d="M29.25,21.91H17.89a1.48,1.48,0,0,1-1.46,1.5H13.5A1.6,1.6,0,0,1,12,21.91H.75a.76.76,0,0,0-.75.75v.75a3,3,0,0,0,3,3H27a3,3,0,0,0,3-3v-.75A.76.76,0,0,0,29.25,21.91Z"/><g id="online-class"><g id="组_320" data-name="组 320"><path id="路径_237" data-name="路径 237" class="cls-2" d="M9.35,10.36,15,12l5.66-1.67L15,8.7Z"/><path id="路径_238" data-name="路径 238" class="cls-2" d="M15,13.51a.64.64,0,0,1-.2,0l-3.91-1.15V15h8.23V12.33l-3.91,1.15Z"/><path id="路径_239" data-name="路径 239" class="cls-2" d="M24.73,3.59H5.27A2.66,2.66,0,0,0,2.61,6.25V20.14H27.39V6.25A2.66,2.66,0,0,0,24.73,3.59ZM24,14.72a.73.73,0,1,1-1.46,0V11.33l-1.93.57v3.79a.73.73,0,0,1-.73.72H10.16a.73.73,0,0,1-.73-.72V11.9l-2.86-.84a.72.72,0,0,1,0-1.39L14.8,7.25a.72.72,0,0,1,.41,0l8.23,2.42a.72.72,0,0,1,.52.7Z"/></g></g></g></g></svg>