<svg id="Layer_1" data-name="Layer 1" xmlns="http://www.w3.org/2000/svg" viewBox="0 0 24 24"><defs><style>.cls-1{fill:none;}.cls-2{fill:#070707;}</style></defs><g id="Group_326" data-name="Group 326"><rect id="Rectangle_253" data-name="Rectangle 253" class="cls-1" width="24" height="24"/><polygon class="cls-1" points="8.03 20 16.28 20 15.55 18 8.76 18 8.03 20"/><path class="cls-1" d="M21,15V14a1,1,0,0,0-1-1H15a1,1,0,0,0-1,1v1a1,1,0,0,0,1,1h5A1,1,0,0,0,21,15Z"/><path class="cls-2" d="M23,16V4a2,2,0,0,0-2-2H13V1a1,1,0,0,0-2,0V2H3A2,2,0,0,0,1,4V16a1,1,0,0,0,0,2H6.63L5,22.38a1,1,0,0,0,.6,1.28,1,1,0,0,0,1.28-.6L7.3,22H17l.38,1.06a1,1,0,0,0,1.29.6,1,1,0,0,0,.59-1.28L17.68,18H23a1,1,0,0,0,0-2Zm-6.72,4H8l.73-2h6.79ZM15,16a1,1,0,0,1-1-1V14a1,1,0,0,1,1-1h5a1,1,0,0,1,1,1v1a1,1,0,0,1-1,1Z"/></g></svg>