<svg id="e7WunDOHVc21" xmlns="http://www.w3.org/2000/svg" xmlns:xlink="http://www.w3.org/1999/xlink" viewBox="0 0 510 510" shape-rendering="geometricPrecision" text-rendering="geometricPrecision"><style><![CDATA[#e7WunDOHVc23_tr {animation: e7WunDOHVc23_tr__tr 1800ms linear infinite normal forwards}@keyframes e7WunDOHVc23_tr__tr { 0% {transform: translate(128.634666px,125px) rotate(0deg)} 27.777778% {transform: translate(128.634666px,125px) rotate(0deg);animation-timing-function: cubic-bezier(0.44,0,0.45,1.005)} 83.333333% {transform: translate(128.634666px,125px) rotate(360deg)} 100% {transform: translate(128.634666px,125px) rotate(360deg)}} #e7WunDOHVc27_ts {animation: e7WunDOHVc27_ts__ts 1800ms linear infinite normal forwards}@keyframes e7WunDOHVc27_ts__ts { 0% {transform: translate(129.999996px,130.000017px) scale(0,0)} 5.555556% {transform: translate(129.999996px,130.000017px) scale(0,0);animation-timing-function: cubic-bezier(0.42,0,0.58,1)} 94.444444% {transform: translate(129.999996px,130.000017px) scale(1.866462,1.866462)} 100% {transform: translate(129.999996px,130.000017px) scale(1.866462,1.866462)}} #e7WunDOHVc27 {animation: e7WunDOHVc27_c_o 1800ms linear infinite normal forwards}@keyframes e7WunDOHVc27_c_o { 0% {opacity: 1} 38.888889% {opacity: 1;animation-timing-function: cubic-bezier(0.42,0,0.58,1)} 94.444444% {opacity: 0} 100% {opacity: 0}}]]></style><defs><linearGradient id="e7WunDOHVc24-fill" x1="99.4702" y1="95.2558" x2="143.9507" y2="164.8986" spreadMethod="pad" gradientUnits="userSpaceOnUse" gradientTransform="translate(0 0)"><stop id="e7WunDOHVc24-fill-0" offset="0%" stop-color="#019fde"/><stop id="e7WunDOHVc24-fill-1" offset="100%" stop-color="#40b7c1"/></linearGradient><linearGradient id="e7WunDOHVc25-fill" x1="121.7318" y1="85.6853" x2="162.2702" y2="155.5271" spreadMethod="pad" gradientUnits="userSpaceOnUse" gradientTransform="translate(0 0)"><stop id="e7WunDOHVc25-fill-0" offset="0%" stop-color="#019fde"/><stop id="e7WunDOHVc25-fill-1" offset="100%" stop-color="#40b7c1"/></linearGradient><linearGradient id="e7WunDOHVc26-fill" x1="96.358" y1="115.167" x2="140.96" y2="182.964" spreadMethod="pad" gradientUnits="userSpaceOnUse" gradientTransform="translate(0 0)"><stop id="e7WunDOHVc26-fill-0" offset="0%" stop-color="#019fde"/><stop id="e7WunDOHVc26-fill-1" offset="100%" stop-color="#40b7c1"/></linearGradient><linearGradient id="e7WunDOHVc27-fill" x1="62.1" y1="19" x2="199.9" y2="242.6" spreadMethod="pad" gradientUnits="userSpaceOnUse" gradientTransform="translate(0 0)"><stop id="e7WunDOHVc27-fill-0" offset="0%" stop-color="#019fde"/><stop id="e7WunDOHVc27-fill-1" offset="100%" stop-color="#40b7c1"/></linearGradient></defs><g transform="translate(124.999951 125)"><g id="e7WunDOHVc23_tr" transform="translate(128.634666,125) rotate(0)"><g transform="translate(-123.634666,-130)"><path style="isolation:isolate" d="M123.6,130.2v0c.048834,13.754516-3.325898,27.304995-9.82,39.43-.24.35-.46.7-.66,1.06.2-.36.42-.71.66-1.06c11.293301-17.60285,30.755948-28.26267,51.67-28.3-14.685431.030153-29.119703-3.808639-41.85-11.13Z" opacity="0.8" fill="url(#e7WunDOHVc24-fill)"/><path style="isolation:isolate" d="M165.55,118.82v0c-20.943667.02251-40.456198-10.625143-51.77-28.25c6.55095,12.114132,10.00995,25.658161,10.07,39.43c12.707315,7.338694,27.125803,11.195122,41.8,11.18v0c1.959973-7.324482,1.959973-15.035518,0-22.36Z" opacity="0.9" fill="url(#e7WunDOHVc25-fill)"/><path d="M112.32,88.15c.45.81,1,1.61,1.46,2.42c13.139557,24.644694,13.139557,54.215306,0,78.86-.5.81-1,1.61-1.46,2.42-7.361882-2.005514-14.066382-5.913024-19.44-11.33v0c10.863705-18.882267,10.863705-42.117733,0-61v0c5.368974-5.43154,12.07389-9.353088,19.44-11.37Z" fill="url(#e7WunDOHVc26-fill)"/></g></g><g id="e7WunDOHVc27_ts" transform="translate(129.999996,130.000017) scale(0,0)"><path id="e7WunDOHVc27" d="M130,260c-8.799836.002217-17.577504-.88225-26.2-2.64C52.879165,246.913552,13.086448,207.120835,2.64,156.2c-3.519934-17.28933-3.519934-35.11067,0-52.4C13.105838,52.889606,52.889606,13.105838,103.8,2.64c17.28933-3.519934,35.11067-3.519934,52.4,0c50.920835,10.446448,90.713552,50.239165,101.16,101.16c3.519934,17.28933,3.519934,35.11067,0,52.4-10.446448,50.920835-50.239165,90.713552-101.16,101.16-8.622496,1.75775-17.400164,2.642217-26.2,2.64ZM130,1c-8.732487.001432-17.442791.879162-26,2.62C53.482463,14.005715,14.005715,53.482463,3.62,104c-3.500121,17.156638-3.500121,34.843362,0,52C14.005715,206.517537,53.482463,245.994285,104,256.38c17.156638,3.500121,34.843362,3.500121,52,0c50.517537-10.385715,89.994285-49.862463,100.38-100.38c3.500121-17.156638,3.500121-34.843362,0-52C245.994285,53.482463,206.517537,14.005715,156,3.62C147.442791,1.879162,138.732487,1.001432,130,1Z" transform="translate(-129.999996,-130.000017)" fill="url(#e7WunDOHVc27-fill)"/></g></g></svg>