<svg id="Layer_1" data-name="Layer 1" xmlns="http://www.w3.org/2000/svg" viewBox="0 0 24 24"><defs><style>.cls-1{fill:#0C0C0C;}</style></defs><g id="组_860" data-name="组 860"><g id="Group_325" data-name="Group 325"><path id="Subtraction_13" data-name="Subtraction 13" class="cls-1" d="M22.87,24H12.69V20.25s0-.31-.39-.42a1.62,1.62,0,0,0-.38,0h-.43a2.35,2.35,0,0,1-1.2-.23,1.37,1.37,0,0,1-.58-1.29,1.11,1.11,0,0,1,.73-1.13A3.69,3.69,0,0,1,11.76,17h.18a2.17,2.17,0,0,0,.36,0c.4-.09.39-.65.39-.66V12.69h2.88a2.83,2.83,0,0,0,5.55,1.12,3,3,0,0,0,0-1.12H24V22.87A1.14,1.14,0,0,1,22.87,24Z"/><path id="Subtraction_15" data-name="Subtraction 15" class="cls-1" d="M1.13,0H11.31V3.75s0,.31.39.42a1.62,1.62,0,0,0,.38,0h.43a2.35,2.35,0,0,1,1.2.23,1.37,1.37,0,0,1,.58,1.29,1.11,1.11,0,0,1-.73,1.13A3.69,3.69,0,0,1,12.24,7h-.18a2.17,2.17,0,0,0-.36,0c-.4.09-.39.65-.39.66v3.62H8.43a2.83,2.83,0,0,0-5.55-1.12,3,3,0,0,0,0,1.12H0V1.13A1.14,1.14,0,0,1,1.13,0Z"/><path id="Subtraction_14" data-name="Subtraction 14" class="cls-1" d="M24,1.13V11.31H20.25s-.31,0-.42.39a1.62,1.62,0,0,0,0,.38v.21h0v.22a2.35,2.35,0,0,1-.23,1.2,1.37,1.37,0,0,1-1.29.58,1.11,1.11,0,0,1-1.13-.73A3.69,3.69,0,0,1,17,12.24v-.18a2.17,2.17,0,0,0,0-.36c-.09-.4-.65-.39-.66-.39H12.69V8.43a2.83,2.83,0,0,0,1.12-5.55,3,3,0,0,0-1.12,0V0H22.87A1.14,1.14,0,0,1,24,1.13Z"/><path id="Subtraction_16" data-name="Subtraction 16" class="cls-1" d="M0,22.87V12.69H3.75s.31,0,.42-.39a1.62,1.62,0,0,0,0-.38v-.21h0v-.22a2.35,2.35,0,0,1,.23-1.2,1.37,1.37,0,0,1,1.29-.58,1.11,1.11,0,0,1,1.13.73A3.48,3.48,0,0,1,7,11.76v.18a2.17,2.17,0,0,0,0,.36c.09.4.65.39.66.39h3.62v2.88a2.83,2.83,0,0,0-1.12,5.55,3,3,0,0,0,1.12,0V24H1.13A1.14,1.14,0,0,1,0,22.87Z"/></g></g></svg>