<svg id="ezJmXiNKCn71" xmlns="http://www.w3.org/2000/svg" xmlns:xlink="http://www.w3.org/1999/xlink" viewBox="0 0 768 768.001" shape-rendering="geometricPrecision" text-rendering="geometricPrecision"><style><![CDATA[#ezJmXiNKCn77_ts {animation: ezJmXiNKCn77_ts__ts 6000ms linear infinite normal forwards}@keyframes ezJmXiNKCn77_ts__ts { 0% {transform: translate(384.7408px,382.2px) scale(1,1)} 41.666667% {transform: translate(384.7408px,382.2px) scale(1.2,1.2)} 96.666667% {transform: translate(384.7408px,382.2px) scale(1,1)} 100% {transform: translate(384.7408px,382.2px) scale(1,1)}} #ezJmXiNKCn78_ts {animation: ezJmXiNKCn78_ts__ts 6000ms linear infinite normal forwards}@keyframes ezJmXiNKCn78_ts__ts { 0% {transform: translate(382.2px,382.2px) scale(1,1);animation-timing-function: cubic-bezier(0.42,0,0.58,1)} 45% {transform: translate(382.2px,382.2px) scale(1.19,1.19);animation-timing-function: cubic-bezier(0.42,0,0.58,1)} 93.333333% {transform: translate(382.2px,382.2px) scale(1,1)} 100% {transform: translate(382.2px,382.2px) scale(1,1)}} #ezJmXiNKCn79_ts {animation: ezJmXiNKCn79_ts__ts 6000ms linear infinite normal forwards}@keyframes ezJmXiNKCn79_ts__ts { 0% {transform: translate(382.2px,382.2px) scale(1,1);animation-timing-function: cubic-bezier(0.42,0,0.58,1)} 46.666667% {transform: translate(382.2px,382.2px) scale(1.18,1.18);animation-timing-function: cubic-bezier(0.42,0,0.58,1)} 91.666667% {transform: translate(382.2px,382.2px) scale(1,1)} 100% {transform: translate(382.2px,382.2px) scale(1,1)}} #ezJmXiNKCn710_ts {animation: ezJmXiNKCn710_ts__ts 6000ms linear infinite normal forwards}@keyframes ezJmXiNKCn710_ts__ts { 0% {transform: translate(382.2px,382.2px) scale(1,1);animation-timing-function: cubic-bezier(0.42,0,0.58,1)} 48.333333% {transform: translate(382.2px,382.2px) scale(1.18,1.18);animation-timing-function: cubic-bezier(0.42,0,0.58,1)} 90% {transform: translate(382.2px,382.2px) scale(1,1)} 100% {transform: translate(382.2px,382.2px) scale(1,1)}} #ezJmXiNKCn711_ts {animation: ezJmXiNKCn711_ts__ts 6000ms linear infinite normal forwards}@keyframes ezJmXiNKCn711_ts__ts { 0% {transform: translate(382.204445px,382.206464px) scale(1,1);animation-timing-function: cubic-bezier(0.42,0,0.58,1)} 50% {transform: translate(382.204445px,382.206464px) scale(1.17,1.17);animation-timing-function: cubic-bezier(0.42,0,0.58,1)} 88.333333% {transform: translate(382.204445px,382.206464px) scale(1,1)} 100% {transform: translate(382.204445px,382.206464px) scale(1,1)}} #ezJmXiNKCn712_ts {animation: ezJmXiNKCn712_ts__ts 6000ms linear infinite normal forwards}@keyframes ezJmXiNKCn712_ts__ts { 0% {transform: translate(382.204445px,385.792348px) scale(1,1);animation-timing-function: cubic-bezier(0.42,0,0.58,1)} 51.666667% {transform: translate(382.204445px,385.792348px) scale(1.16,1.16);animation-timing-function: cubic-bezier(0.42,0,0.58,1)} 86.666667% {transform: translate(382.204445px,385.792348px) scale(1,1)} 100% {transform: translate(382.204445px,385.792348px) scale(1,1)}} #ezJmXiNKCn713_ts {animation: ezJmXiNKCn713_ts__ts 6000ms linear infinite normal forwards}@keyframes ezJmXiNKCn713_ts__ts { 0% {transform: translate(382.204445px,382.206464px) scale(1,1);animation-timing-function: cubic-bezier(0.42,0,0.58,1)} 53.333333% {transform: translate(382.204445px,382.206464px) scale(1.15,1.15);animation-timing-function: cubic-bezier(0.42,0,0.58,1)} 85% {transform: translate(382.204445px,382.206464px) scale(1,1)} 100% {transform: translate(382.204445px,382.206464px) scale(1,1)}} #ezJmXiNKCn714_ts {animation: ezJmXiNKCn714_ts__ts 6000ms linear infinite normal forwards}@keyframes ezJmXiNKCn714_ts__ts { 0% {transform: translate(382.204432px,382.206464px) rotate(-89.708019deg) scale(1,1);animation-timing-function: cubic-bezier(0.42,0,0.58,1)} 55% {transform: translate(382.204432px,382.206464px) rotate(-89.708019deg) scale(1.14,1.14);animation-timing-function: cubic-bezier(0.42,0,0.58,1)} 83.333333% {transform: translate(382.204432px,382.206464px) rotate(-89.708019deg) scale(1,1)} 100% {transform: translate(382.204432px,382.206464px) rotate(-89.708019deg) scale(1,1)}} #ezJmXiNKCn715_ts {animation: ezJmXiNKCn715_ts__ts 6000ms linear infinite normal forwards}@keyframes ezJmXiNKCn715_ts__ts { 0% {transform: translate(382.204432px,382.206569px) rotate(-90.000001deg) scale(1,1);animation-timing-function: cubic-bezier(0.42,0,0.58,1)} 43.333333% {transform: translate(382.204432px,382.206569px) rotate(-90.000001deg) scale(1.19,1.19);animation-timing-function: cubic-bezier(0.42,0,0.58,1)} 95% {transform: translate(382.204432px,382.206569px) rotate(-90.000001deg) scale(1,1)} 100% {transform: translate(382.204432px,382.206569px) rotate(-90.000001deg) scale(1,1)}} #ezJmXiNKCn719_to {animation: ezJmXiNKCn719_to__to 6000ms linear infinite normal forwards}@keyframes ezJmXiNKCn719_to__to { 0% {transform: translate(498px,195.0005px)} 26.666667% {transform: translate(498px,153.0005px)} 48.333333% {transform: translate(498px,195.0005px)} 71.666667% {transform: translate(498px,145.0005px)} 100% {transform: translate(498px,195.0005px)}} #ezJmXiNKCn719_tr {animation: ezJmXiNKCn719_tr__tr 6000ms linear infinite normal forwards}@keyframes ezJmXiNKCn719_tr__tr { 0% {transform: rotate(45.000001deg)} 100% {transform: rotate(405.000001deg)}} #ezJmXiNKCn720_to {animation: ezJmXiNKCn720_to__to 6000ms linear infinite normal forwards}@keyframes ezJmXiNKCn720_to__to { 0% {transform: translate(220px,587.0005px)} 26.666667% {transform: translate(220px,631.0005px)} 48.333333% {transform: translate(220px,587.0005px)} 71.666667% {transform: translate(220px,647.0005px)} 100% {transform: translate(220px,587.0005px)}} #ezJmXiNKCn720_tr {animation: ezJmXiNKCn720_tr__tr 6000ms linear infinite normal forwards}@keyframes ezJmXiNKCn720_tr__tr { 0% {transform: rotate(0deg)} 100% {transform: rotate(360deg)}}]]></style><defs><radialGradient id="ezJmXiNKCn718-fill" cx="0" cy="0" r="0.500005" spreadMethod="pad" gradientUnits="objectBoundingBox" gradientTransform="translate(0.5 0.5)"><stop id="ezJmXiNKCn718-fill-0" offset="0%" stop-color="rgba(0,0,0,0)"/><stop id="ezJmXiNKCn718-fill-1" offset="100%" stop-color="#121212"/></radialGradient><linearGradient id="ezJmXiNKCn719-fill" x1="12" y1="1.5" x2="58.8997" y2="92.5" spreadMethod="pad" gradientUnits="userSpaceOnUse" gradientTransform="translate(0 0)"><stop id="ezJmXiNKCn719-fill-0" offset="0%" stop-color="#019fde"/><stop id="ezJmXiNKCn719-fill-1" offset="100%" stop-color="#40b7c1"/></linearGradient><linearGradient id="ezJmXiNKCn720-fill" x1="12" y1="1.5" x2="58.8997" y2="92.5" spreadMethod="pad" gradientUnits="userSpaceOnUse" gradientTransform="translate(0 0)"><stop id="ezJmXiNKCn720-fill-0" offset="0%" stop-color="#019fde"/><stop id="ezJmXiNKCn720-fill-1" offset="100%" stop-color="#40b7c1"/></linearGradient></defs><g transform="translate(-43-9448)"><g transform="translate(43 9448)" opacity="0.5"><g><g clip-path="url(#ezJmXiNKCn716)"><g><g id="ezJmXiNKCn77_ts" transform="translate(384.7408,382.2) scale(1,1)"><path d="M643.911,1170.1c0-52.266502,31.484741-99.386452,79.772809-119.387696s103.869849-8.944837,140.827418,28.01359s48.012686,92.540465,28.010321,140.828069-67.123046,79.77125-119.389548,79.770037c-34.27206,0-67.140381-13.614728-91.374106-37.849015s-37.84769-57.102925-37.846894-91.374985Z" transform="translate(-773.873793,-1168.301)" fill="none" stroke="#019fde" stroke-width="2.636" stroke-miterlimit="10"/></g><g id="ezJmXiNKCn78_ts" transform="translate(382.2,382.2) scale(1,1)"><path d="M945.633,1181.579c0,88.930417-72.09225,161.022816-161.022667,161.023s-161.022965-72.091916-161.023333-161.022333s72.091583-161.023115,161.022-161.023667c42.706209-.00053,83.663451,16.964142,113.861395,47.161898s47.16287,71.154893,47.162605,113.861102Z" transform="translate(-782.809999,-1179.777995)" fill="none" stroke="#019fde" stroke-width="2.367" stroke-miterlimit="10"/></g><g id="ezJmXiNKCn79_ts" transform="translate(382.2,382.2) scale(1,1)"><path d="M988.91,1193.055c0,106.5-86.329,192.823-192.824,192.823s-192.821-86.327-192.821-192.823s86.327-192.821,192.821-192.821s192.824,86.326,192.824,192.821Z" transform="translate(-796.087499,-1193.056)" fill="none" stroke="#019fde" stroke-width="2.098" stroke-miterlimit="10"/></g><g id="ezJmXiNKCn710_ts" transform="translate(382.2,382.2) scale(1,1)"><path d="M1032.187,1204.533c0,124.056-100.566,224.624-224.624,224.624s-224.619-100.568-224.619-224.624s100.564-224.623,224.618-224.623s224.625,100.565,224.625,224.623Z" transform="translate(-807.565506,-1204.5335)" fill="none" stroke="#019fde" stroke-width="1.829" stroke-miterlimit="10"/></g><g id="ezJmXiNKCn711_ts" transform="translate(382.204445,382.206464) scale(1,1)"><circle r="256.422" transform="translate(1.795555,1.795538)" fill="none" stroke="#019fde" stroke-width="1.561" stroke-miterlimit="10"/></g><g id="ezJmXiNKCn712_ts" transform="translate(382.204445,385.792348) scale(1,1)"><circle r="288.221" transform="translate(2.536355,0.003046)" fill="none" stroke="#019fde" stroke-width="1.292" stroke-miterlimit="10"/></g><g id="ezJmXiNKCn713_ts" transform="translate(382.204445,382.206464) scale(1,1)"><circle r="320.022" transform="translate(1.795556,1.794536)" fill="none" stroke="#019fde" stroke-width="1.023" stroke-miterlimit="10"/></g><g id="ezJmXiNKCn714_ts" transform="translate(382.204432,382.206464) rotate(-89.708019) scale(1,1)"><circle r="351.822" transform="translate(-1.783836,1.802014)" fill="none" stroke="#019fde" stroke-width="0.754" stroke-miterlimit="10"/></g><g id="ezJmXiNKCn715_ts" transform="translate(382.204432,382.206569) rotate(-90.000001) scale(1,1)"><circle r="383.621" transform="translate(0.000098,2.537861)" fill="none" stroke="#019fde" stroke-width="0.485" stroke-miterlimit="10"/></g></g><clipPath id="ezJmXiNKCn716"><rect width="768" height="768.002" rx="0" ry="0" fill="none" stroke="#019fde"/></clipPath></g></g></g><rect width="768" height="768" rx="0" ry="0" transform="translate(43 9448)" fill="url(#ezJmXiNKCn718-fill)"/></g><g id="ezJmXiNKCn719_to" transform="translate(498,195.0005)"><g id="ezJmXiNKCn719_tr" transform="rotate(45.000001)"><path d="M23.21,100C14.419134,97.612528,6.413303,92.949071,0,86.48c3.207443-5.572597,5.665335-11.544165,7.31-17.76C8.929795,62.61206,9.746673,56.319068,9.74,50c.009468-6.332412-.807428-12.638988-2.43-18.76C5.661695,25.02539,3.203995,19.054289,0,13.48C6.419978,7.028122,14.424641,2.379141,23.21,0c.52.94,1.06,1.78,1.63,2.68l.12.19c.13.25.27.5.39.74c3.350055,5.089234,7.32058,9.741668,11.82,13.85c4.439294,4.053175,9.359435,7.545972,14.65,10.4c5.290583,2.848443,10.908692,5.041285,16.73,6.53c5.916049,1.503296,11.995942,2.265802,18.1,2.27h.1c2.320155,8.748789,2.320155,17.951211,0,26.7h-1.42c-24.219641.427061-46.669508,12.774488-60,33-.12.24-.25.48-.39.74-.59.92-1.16,1.86-1.75,2.87Zm-.9-96.7c-10.81,2.78-16,8.12-18,10.13L3.77,14c4.379541,7.656461,7.136717,16.132226,8.1,24.9.801685,7.545856.508657,15.167966-.87,22.63-1.011909,5.741772-2.558645,11.376311-4.62,16.83-.949208,2.561854-2.061484,5.060298-3.33,7.48c3.049597,3.35225,6.70328,6.100146,10.77,8.1c2.681634,1.424047,5.525602,2.518656,8.47,3.26c4.196364-7.22999,9.636571-13.662096,16.07-19c5.477694-4.501047,11.564689-8.204417,18.08-11c5.262936-2.278105,10.754056-3.987794,16.38-5.1c3.619223-.761509,7.302193-1.180028,11-1.25.28,0,.55,0,.79,0c.64-1.91,1.35-5.53,1.12-12-.113156-3.391474-.447197-6.77197-1-10.12-9.107768-.230415-18.10435-2.058163-26.58-5.4-6.778602-2.711798-13.114944-6.419232-18.8-11-4.300258-3.411098-8.222646-7.273141-11.7-11.52-1.886389-2.320595-3.623231-4.758853-5.2-7.3Z" transform="scale(0.6,0.6) translate(-44.245056,-50)" fill="url(#ezJmXiNKCn719-fill)"/></g></g><g id="ezJmXiNKCn720_to" transform="translate(220,587.0005)"><g id="ezJmXiNKCn720_tr" transform="rotate(0)"><path d="M23.21,100C14.419134,97.612528,6.413303,92.949071,0,86.48c3.207443-5.572597,5.665335-11.544165,7.31-17.76C8.929795,62.61206,9.746673,56.319068,9.74,50c.009468-6.332412-.807428-12.638988-2.43-18.76C5.661695,25.02539,3.203995,19.054289,0,13.48C6.419978,7.028122,14.424641,2.379141,23.21,0c.52.94,1.06,1.78,1.63,2.68l.12.19c.13.25.27.5.39.74c3.350055,5.089234,7.32058,9.741668,11.82,13.85c4.439294,4.053175,9.359435,7.545972,14.65,10.4c5.290583,2.848443,10.908692,5.041285,16.73,6.53c5.916049,1.503296,11.995942,2.265802,18.1,2.27h.1c2.320155,8.748789,2.320155,17.951211,0,26.7h-1.42c-24.219641.427061-46.669508,12.774488-60,33-.12.24-.25.48-.39.74-.59.92-1.16,1.86-1.75,2.87Zm-.9-96.7c-10.81,2.78-16,8.12-18,10.13L3.77,14c4.379541,7.656461,7.136717,16.132226,8.1,24.9.801685,7.545856.508657,15.167966-.87,22.63-1.011909,5.741772-2.558645,11.376311-4.62,16.83-.949208,2.561854-2.061484,5.060298-3.33,7.48c3.049597,3.35225,6.70328,6.100146,10.77,8.1c2.681634,1.424047,5.525602,2.518656,8.47,3.26c4.196364-7.22999,9.636571-13.662096,16.07-19c5.477694-4.501047,11.564689-8.204417,18.08-11c5.262936-2.278105,10.754056-3.987794,16.38-5.1c3.619223-.761509,7.302193-1.180028,11-1.25.28,0,.55,0,.79,0c.64-1.91,1.35-5.53,1.12-12-.113156-3.391474-.447197-6.77197-1-10.12-9.107768-.230415-18.10435-2.058163-26.58-5.4-6.778602-2.711798-13.114944-6.419232-18.8-11-4.300258-3.411098-8.222646-7.273141-11.7-11.52-1.886389-2.320595-3.623231-4.758853-5.2-7.3Z" transform="scale(0.9,0.9) translate(-44.245056,-50)" fill="url(#ezJmXiNKCn720-fill)"/></g></g></svg>