<svg id="earc5FNnfMu1" xmlns="http://www.w3.org/2000/svg" xmlns:xlink="http://www.w3.org/1999/xlink" viewBox="0 0 1040 585" shape-rendering="geometricPrecision" text-rendering="geometricPrecision"><style><![CDATA[#earc5FNnfMu5_ts {animation: earc5FNnfMu5_ts__ts 3000ms linear infinite normal forwards}@keyframes earc5FNnfMu5_ts__ts { 0% {transform: translate(522.484406px,292.000046px) scale(1,1)} 10% {transform: translate(522.484406px,292.000046px) scale(0.8,0.8)} 36.666667% {transform: translate(522.484406px,292.000046px) scale(0.8,0.8)} 46.666667% {transform: translate(522.484406px,292.000046px) scale(1,1)} 100% {transform: translate(522.484406px,292.000046px) scale(1,1)}} #earc5FNnfMu6_ts {animation: earc5FNnfMu6_ts__ts 3000ms linear infinite normal forwards}@keyframes earc5FNnfMu6_ts__ts { 0% {transform: translate(517.024979px,292.011414px) scale(1,1)} 13.333333% {transform: translate(517.024979px,292.011414px) scale(1.2,1.2)} 23.333333% {transform: translate(517.024979px,292.011414px) scale(1,1)} 36.666667% {transform: translate(517.024979px,292.011414px) scale(1.2,1.2)} 46.666667% {transform: translate(517.024979px,292.011414px) scale(1,1)} 100% {transform: translate(517.024979px,292.011414px) scale(1,1)}}]]></style><defs><linearGradient id="earc5FNnfMu5-fill" x1="506.4422" y1="351.6546" x2="536.797" y2="305.7742" spreadMethod="pad" gradientUnits="userSpaceOnUse" gradientTransform="translate(0 0)"><stop id="earc5FNnfMu5-fill-0" offset="0%" stop-color="#019fde"/><stop id="earc5FNnfMu5-fill-1" offset="100%" stop-color="#40b7c1"/></linearGradient><linearGradient id="earc5FNnfMu6-fill" x1="471.7" y1="269.8" x2="569.7" y2="400" spreadMethod="pad" gradientUnits="userSpaceOnUse" gradientTransform="translate(0 0)"><stop id="earc5FNnfMu6-fill-0" offset="0%" stop-color="#019fde"/><stop id="earc5FNnfMu6-fill-1" offset="100%" stop-color="#40b7c1"/></linearGradient></defs><g><g><rect width="1040" height="585" rx="0" ry="0" fill="rgba(0,0,0,0.7)"/><g id="earc5FNnfMu5_ts" transform="translate(522.484406,292.000046) scale(1,1)"><path d="M511,357.93c-1.55745-.002053-3.054319-.603666-4.18-1.68-1.187161-1.125786-1.853553-2.69398-1.84-4.33v-37.85c-.010776-1.632553.655389-3.196593,1.84-4.32c1.129597-1.070244,2.623938-1.670841,4.18-1.68c1.161316.005794,2.295187.353608,3.26,1l29,18.92c1.702172,1.106902,2.729052,2.999576,2.729052,5.03s-1.02688,3.923098-2.729052,5.03l-29,18.92c-.969242.632268-2.102781.966071-3.26.96Zm1-45.68c-1.037488.010538-2.0332.41025-2.79,1.12-.783202.757036-1.223795,1.800737-1.22,2.89v33.48c-.001075,1.085794.439303,2.125373,1.22,2.88.753089.716786,1.750366,1.120701,2.79,1.13.755238-.004703,1.493714-.223125,2.13-.63l26.5-16.74c1.158623-.733246,1.860935-2.008848,1.860935-3.38s-.702312-2.646754-1.860935-3.38l-26.51-16.74c-.636286-.406875-1.374762-.625297-2.13-.63Z" transform="translate(-525.484406,-333.000046)" fill="url(#earc5FNnfMu5-fill)"/></g><g id="earc5FNnfMu6_ts" transform="translate(517.024979,292.011414) scale(1,1)"><path d="M520,403c-13.948305.02156-27.582436-4.141134-39.14-11.95-7.43425-5.043905-13.835795-11.462422-18.86-18.91-15.969855-23.649833-15.969855-54.630167,0-78.28c5.029167-7.429597,11.430403-13.830833,18.86-18.86c23.649833-15.969855,54.630167-15.969855,78.28,0c7.452232,5.03894,13.87106,11.457768,18.91,18.91c15.969855,23.649833,15.969855,54.630167,0,78.28-5.03894,7.452232-11.457768,13.87106-18.91,18.91-11.563228,7.791183-25.196921,11.936327-39.14,11.9Zm0-138c-9.092565-.017222-18.09527,1.798963-26.47,5.34-12.146628,5.151842-22.536911,13.718355-29.91,24.66-12.837543,19.061141-15.198905,43.310229-6.28,64.49c1.721778,4.026087,3.82116,7.879976,6.27,11.51c7.384822,10.927761,17.776912,19.482479,29.92,24.63c16.927224,7.126223,36.012776,7.126223,52.94,0c4.031836-1.711075,7.89243-3.800417,11.53-6.24c7.249598-4.894235,13.489709-11.137741,18.38-18.39c12.837543-19.061141,15.198905-43.310229,6.28-64.49-1.721778-4.026087-3.82116-7.879976-6.27-11.51-4.894235-7.249598-11.137741-13.489709-18.39-18.38-11.21971-7.586092-24.456348-11.633717-38-11.62Z" transform="translate(-520.024979,-333.011414)" fill="url(#earc5FNnfMu6-fill)"/></g></g></g></svg>