<svg id="Layer_1" data-name="Layer 1" xmlns="http://www.w3.org/2000/svg" xmlns:xlink="http://www.w3.org/1999/xlink" viewBox="0 0 88.49 100"><defs><style>.cls-1{fill:url(#linear-gradient);}</style><linearGradient id="linear-gradient" x1="-250" y1="467.17" x2="-249.47" y2="466.26" gradientTransform="matrix(88.49, 0, 0, -100, 22134.54, 46718.47)" gradientUnits="userSpaceOnUse"><stop offset="0" stop-color="#019fde"/><stop offset="1" stop-color="#40b7c1"/></linearGradient></defs><path id="Subtraction_75" data-name="Subtraction 75" class="cls-1" d="M23.21,100A51.8,51.8,0,0,1,0,86.48,73.07,73.07,0,0,0,7.31,68.72,72.73,72.73,0,0,0,9.74,50,72.79,72.79,0,0,0,7.31,31.24,73.4,73.4,0,0,0,0,13.48,51.87,51.87,0,0,1,23.21,0c.52.94,1.06,1.78,1.63,2.68l.12.19c.13.25.27.5.39.74A73.42,73.42,0,0,0,37.17,17.46a73.44,73.44,0,0,0,14.65,10.4,73.93,73.93,0,0,0,16.73,6.53,73.7,73.7,0,0,0,18.1,2.27h.1a52.08,52.08,0,0,1,0,26.7H85.33a73.41,73.41,0,0,0-60,33c-.12.24-.25.48-.39.74-.59.92-1.16,1.86-1.75,2.87Zm-.9-96.7c-10.81,2.78-16,8.12-18,10.13L3.77,14a64.29,64.29,0,0,1,8.1,24.9A78.76,78.76,0,0,1,11,61.53,93.5,93.5,0,0,1,6.38,78.36a64,64,0,0,1-3.33,7.48,36.09,36.09,0,0,0,10.77,8.1,37.67,37.67,0,0,0,8.47,3.26,71,71,0,0,1,16.07-19,75.16,75.16,0,0,1,18.08-11,80.57,80.57,0,0,1,16.38-5.1,58.83,58.83,0,0,1,11-1.25c.28,0,.55,0,.79,0,.64-1.91,1.35-5.53,1.12-12a78.11,78.11,0,0,0-1-10.12,77.83,77.83,0,0,1-26.58-5.4,73.44,73.44,0,0,1-18.8-11A76.84,76.84,0,0,1,27.65,10.81a70.51,70.51,0,0,1-5.2-7.3Z" transform="translate(0 0)"/></svg>