<svg id="Layer_1" data-name="Layer 1" xmlns="http://www.w3.org/2000/svg" viewBox="0 0 24 24"><defs><style>.cls-1{opacity:1;}.cls-2{fill:none;}.cls-3{fill:#FFFFFF;}</style></defs><g id="Group_13468" data-name="Group 13468" class="cls-1"><rect id="Rectangle_11616" data-name="Rectangle 11616" class="cls-2" width="24" height="24"/><path id="Subtraction_11" data-name="Subtraction 11" class="cls-3" d="M20,24H4a4,4,0,0,1-4-4V4A4,4,0,0,1,4,0H20a4,4,0,0,1,4,4V20A4,4,0,0,1,20,24ZM12,5a7,7,0,1,0,7,7A7,7,0,0,0,12,5Zm7.5-2A1.5,1.5,0,1,0,21,4.5,1.5,1.5,0,0,0,19.5,3ZM12,17a5,5,0,1,1,5-5A5,5,0,0,1,12,17Z"/></g></svg>