<svg id="Layer_1" data-name="Layer 1" xmlns="http://www.w3.org/2000/svg" viewBox="0 0 24 24"><defs><style>.cls-1{opacity:1;}.cls-2{fill:#FFFFFF;}</style></defs><g id="yotta_signin" data-name="yotta signin" class="cls-1"><path id="Subtraction_21" data-name="Subtraction 21" class="cls-2" d="M22,24H2a2,2,0,0,1-2-2V2A2,2,0,0,1,2,0H22a2,2,0,0,1,2,2V22A2,2,0,0,1,22,24ZM8.5,4A8.45,8.45,0,0,0,4.8,6.14,11.73,11.73,0,0,1,6.36,12,11.68,11.68,0,0,1,4.8,17.8,8.31,8.31,0,0,0,8.5,20l.29-.45a16,16,0,0,0,0-15.06Zm2.39,8.23A16.1,16.1,0,0,1,9,19.77a11.69,11.69,0,0,1,9.83-5.4h0a15.93,15.93,0,0,1-7.94-2.13Zm-1.82-8h0a16,16,0,0,1,1.83,7.52,15.91,15.91,0,0,0,8,2.19,8.54,8.54,0,0,0,0-4.26l0-.06A11.71,11.71,0,0,1,13.3,8.19,11.79,11.79,0,0,1,9.07,4.24Z" transform="translate(0)"/></g></svg>