<svg id="Layer_1" data-name="Layer 1" xmlns="http://www.w3.org/2000/svg" viewBox="0 0 24 24"><defs><style>.cls-1{fill:none;}.cls-2{fill:#fff;}</style></defs><g id="Group_8012" data-name="Group 8012"><rect id="Rectangle_4381" data-name="Rectangle 4381" class="cls-1" width="24" height="24"/><path class="cls-1" d="M5.7,13.8h0a2,2,0,1,0,2,2A2,2,0,0,0,5.7,13.8Z"/><circle class="cls-1" cx="5" cy="10" r="2"/><path class="cls-1" d="M8.4,7.7a2,2,0,0,0,0-4h0a2,2,0,0,0,0,4Z"/><path class="cls-1" d="M18.3,13.14a2,2,0,0,0,.15-.34.22.22,0,0,0,0-.08,2.34,2.34,0,0,0,.07-.45,2.3,2.3,0,0,0-1.08-2.09,2.06,2.06,0,0,0-1.12-.4,1.2,1.2,0,0,0-.32.06,1,1,0,0,0-.29.09,1.4,1.4,0,0,0-.17.09,4.07,4.07,0,0,0-1.82,3,4.84,4.84,0,0,1-.68,2.22,2.86,2.86,0,0,0-.31.69.14.14,0,0,0,0,.14.29.29,0,0,0,.2.09h.13a6.65,6.65,0,0,0,1.6-.23,7.35,7.35,0,0,0,3.57-2.71A.36.36,0,0,0,18.3,13.14Z"/><circle class="cls-1" cx="10" cy="19" r="2"/><path class="cls-2" d="M23.48.53a1.06,1.06,0,0,0-.82-.34c-.85,0-2,.7-3.11,2a23.79,23.79,0,0,0-3,4.64l.14-.24L21,9.1h0c.37-.61.75-1.3,1.13-2C23.88,3.71,24.13,1.24,23.48.53Z"/><path class="cls-2" d="M20.5,10l-4.32-2.5L15.92,8h0l-.36.89A7,7,0,0,1,14.67,5a2.37,2.37,0,0,0,0-.24c0-.14,0-.27,0-.4a5.45,5.45,0,0,0,0-2.09A2.71,2.71,0,0,0,12.75.33,6.31,6.31,0,0,0,10.82.05,10.76,10.76,0,0,0,1.65,5.7,12.41,12.41,0,0,0,0,12.6,12.14,12.14,0,0,0,1.13,17a11.91,11.91,0,0,0,2.46,3.54l.15.17a9.43,9.43,0,0,0,3.89,2.37,14.88,14.88,0,0,0,4.86.81,10.51,10.51,0,0,0,3.89-.66,7.19,7.19,0,0,0,3.89-5.28A6.05,6.05,0,0,0,19.19,13a5.63,5.63,0,0,0,.17-1.58A9.56,9.56,0,0,0,20.5,10ZM8.4,3.7h0a2,2,0,1,1-2,2A2,2,0,0,1,8.4,3.7ZM3,10a2,2,0,1,1,2,2A2,2,0,0,1,3,10Zm2.7,7.8a2,2,0,1,1,0-4h0a2,2,0,0,1,0,4ZM10,21a2,2,0,1,1,2-2A2,2,0,0,1,10,21Zm4.69-5.06a6.65,6.65,0,0,1-1.6.23H13a.29.29,0,0,1-.2-.09.14.14,0,0,1,0-.14,2.86,2.86,0,0,1,.31-.69A4.84,4.84,0,0,0,13.73,13a4.07,4.07,0,0,1,1.82-3,1.4,1.4,0,0,1,.17-.09A1,1,0,0,1,16,9.84a1.2,1.2,0,0,1,.32-.06,2.06,2.06,0,0,1,1.12.4,2.3,2.3,0,0,1,1.08,2.09,2.34,2.34,0,0,1-.07.45.22.22,0,0,1,0,.08,2,2,0,0,1-.15.34.36.36,0,0,1,0,.09A7.35,7.35,0,0,1,14.69,15.94Z"/></g></svg>