<svg id="Layer_1" data-name="Layer 1" xmlns="http://www.w3.org/2000/svg" viewBox="0 0 24 24"><defs><style>.cls-1{fill:none;}.cls-2{fill:#fff;}</style></defs><g id="Group_12617" data-name="Group 12617"><rect id="Rectangle_234" data-name="Rectangle 234" class="cls-1" width="24" height="24"/><g id="briefcase"><g id="Group_271" data-name="Group 271"><g id="Group_270" data-name="Group 270"><path id="Path_218" data-name="Path 218" class="cls-2" d="M22,5.42H17v-1a2,2,0,0,0-2-2H9a2,2,0,0,0-2,2v1h-5a2,2,0,0,0-2,2v3a2,2,0,0,0,2,2h8v-.5a.5.5,0,0,1,.5-.5h3a.51.51,0,0,1,.5.5v.5h8a2,2,0,0,0,2-2v-3A2,2,0,0,0,22,5.42Zm-7,0H9v-1h6Z" transform="translate(0)"/><path id="Path_219" data-name="Path 219" class="cls-2" d="M23.67,13a.51.51,0,0,0-.52,0,2,2,0,0,1-1.2.41H14v1.49a.5.5,0,0,1-.5.5h-3a.5.5,0,0,1-.5-.5V13.42h-8A2,2,0,0,1,.86,13a.5.5,0,0,0-.7.1.47.47,0,0,0-.1.3v7a2,2,0,0,0,2,2H22a2,2,0,0,0,2-2v-7A.5.5,0,0,0,23.67,13Z" transform="translate(0)"/></g></g></g></g></svg>