<svg id="Group_8010" data-name="Group 8010" xmlns="http://www.w3.org/2000/svg" viewBox="0 0 24 24"><defs><style>.cls-1{fill:none;}.cls-2{fill:#fff;}</style></defs><rect id="Rectangle_4372" data-name="Rectangle 4372" class="cls-1" width="24" height="24"/><path id="Subtraction_33" data-name="Subtraction 33" class="cls-2" d="M19,22H5V2H19ZM10.5,8.72a1,1,0,0,0-1,1v4.56a1,1,0,0,0,1,1,1.09,1.09,0,0,0,.5-.13l4-2.28a1,1,0,0,0,.39-1.35,1,1,0,0,0-.39-.39L11,8.86A1,1,0,0,0,10.5,8.72Z"/><path id="Subtraction_36" data-name="Subtraction 36" class="cls-2" d="M22,22H20V16h4v4A2,2,0,0,1,22,22Zm2-7H20V9h4Zm0-7H20V2h2a2,2,0,0,1,2,2Z"/><path id="Subtraction_37" data-name="Subtraction 37" class="cls-2" d="M2,2H4V8H0V4A2,2,0,0,1,2,2ZM0,9H4v6H0Zm0,7H4v6H2a2,2,0,0,1-2-2Z"/></svg>