<svg xmlns="http://www.w3.org/2000/svg" xmlns:xlink="http://www.w3.org/1999/xlink" width="120" height="120" viewBox="0 0 120 120">
  <defs>
    <clipPath id="clip-path">
      <circle id="Ellipse_314" data-name="Ellipse 314" cx="60" cy="60" r="60" transform="translate(-18520 3787)" fill="#fff"/>
    </clipPath>
    <linearGradient id="linear-gradient" x1="0.5" x2="0.619" y2="1.057" gradientUnits="objectBoundingBox">
      <stop offset="0" stop-color="#019fde"/>
      <stop offset="1" stop-color="#40b7c1"/>
    </linearGradient>
  </defs>
  <g id="Group_14119" data-name="Group 14119" transform="translate(18958 -3651)">
    <circle id="Ellipse_308" data-name="Ellipse 308" cx="60" cy="60" r="60" transform="translate(-18958 3651)" fill="#fff" opacity="0.8"/>
    <g id="Mask_Group_39" data-name="Mask Group 39" transform="translate(-438 -136)" clip-path="url(#clip-path)">
      <g id="Group_14109" data-name="Group 14109">
        <path id="Path_20803" data-name="Path 20803" d="M347.186,80.029a21.68,21.68,0,0,1-2.291-7.445c5.661-1.264,10.479-2.118,12.183-2.41,2.247-2.44,3.175-8.6,3.494-11.87-7.47-4.826-8.344-13.321-8.344-13.321l0-16.09,0,0v-.006a65.486,65.486,0,0,0,17.458-12.818L388.7,28.47l-.033,16.513s-.918,8.938-8.928,13.681c.354,3.361,1.3,9.2,3.488,11.536a1.119,1.119,0,0,0,.121.127c2.038.325,5.68.951,9.587,1.811a21.674,21.674,0,0,1-2.327,7.891H401.92c-.334-1.895-.677-3.894-1.021-5.974-2.177-13.111-4.188-24.792-4.542-38.13C395.255-5.589,374.929-.858,368.1,2.433c-3.151-1.48-24.07-8.679-26.07,28.379-.771,14.327-3.382,29.228-6.129,44.005q-.5,2.715-.986,5.212Z" transform="translate(-18828 3801)" fill="#0c0c0c"/>
        <path id="Path_20804" data-name="Path 20804" d="M428.724,114.634l-8.16-23.769A25.21,25.21,0,0,0,403.6,74.794c-.9-.255-1.8-.5-2.7-.739-2.746-.724-5.475-1.368-7.962-1.917-1.1,11.634-11.445,20.751-24.044,20.751-12.435,0-22.677-8.887-24-20.305-2.88.641-5.978,1.394-9,2.232l-.154.043A25.108,25.108,0,0,0,318.8,90.922l-8.142,23.712Z" transform="translate(-18828 3801)" fill="#0c0c0c"/>
        <path id="Path_20805" data-name="Path 20805" d="M361.053,75.481l-14.227,3.86a21.649,21.649,0,0,1-1.932-6.757c5.662-1.264,10.479-2.118,12.184-2.41.032-.036.065-.071.091-.107l.275.1Z" transform="translate(-18828 3801)" fill="#0c0c0c"/>
        <path id="Path_20806" data-name="Path 20806" d="M352.229,43.343c-3.605-.246-4.045-1.94-3.969-3.838.079-1.966-.634-4.008-1.827-8.67s5.243-2.258,5.243-2.258l.55,1.362Z" transform="translate(-18828 3801)" fill="#0c0c0c"/>
        <path id="Path_20807" data-name="Path 20807" d="M393.789,30.835c-1.189,4.662-1.9,6.7-1.823,8.67.071,1.771-.307,3.367-3.28,3.771l.015-14.382s-.072-.057-.2-.162l.062-.155s6.414-2.4,5.227,2.258" transform="translate(-18828 3801)" fill="#0c0c0c"/>
        <path id="Path_20808" data-name="Path 20808" d="M370.591,62.624l-.335,0c-9.051-.77-13.8-5.488-16.183-9.31a21.092,21.092,0,0,1-3.02-8.206l-.006-.121,0-16.694,0,0v-.2l.752-.3c.1-.041,10.517-4.187,16.337-12.26l.647-.9,21.1,13.191-.04,17.287a21.093,21.093,0,0,1-3.02,8.206c-2.387,3.822-7.132,8.54-16.183,9.31Zm-.184-2.363h.083c6.46-.561,11.281-3.321,14.33-8.2a19,19,0,0,0,2.667-7.145l.032-15.789L369.388,17.79C364,24.681,355.907,28.58,353.407,29.671l0,15.246c.13,1.09,2,14.04,17,15.344" transform="translate(-18828 3801)" fill="#0c0c0c"/>
        <path id="Path_20809" data-name="Path 20809" d="M384.859,70.57l-.666-1.064c-1.864-1.816-2.945-7.221-3.338-11.56-.354.248-.726.491-1.116.718-.36.216-.732.419-1.122.611.021.184.044.376.069.574-6.7,2.423-14.151.283-17.012-.736,0-.048.011-.1.016-.148-.39-.209-.762-.431-1.119-.661-.39-.254-.762-.514-1.116-.786-.358,4.4-1.448,10.11-3.373,11.985l-.68.661h1.559l-.057.188L361.01,75.5l3-9.279c8.2.707,12.845-3.152,14.814-5.386.432,2.988,1.274,6.934,2.877,9.324Z" transform="translate(-18828 3801)" fill="#0c0c0c"/>
        <path id="Path_20810" data-name="Path 20810" d="M361.053,75.481l-14.227,3.86a21.649,21.649,0,0,1-1.932-6.757c5.662-1.264,9.65-2.288,11.354-2.58.032-.036.9.1.921.063l.275.1Z" transform="translate(-18828 3801)" fill="#0c0c0c"/>
        <path id="Subtraction_66" data-name="Subtraction 66" d="M483.881,171.058c-3.379,0-6.313-3.038-6.976-7.224.5-.416.991-.856,1.455-1.309.192,3.663,2.616,6.533,5.521,6.533,3.055,0,5.539-3.14,5.539-7s-2.485-7-5.539-7a4.432,4.432,0,0,0-.722.059,8.95,8.95,0,0,0,.322-1.6c.013-.131.027-.281.039-.446.125-.008.246-.011.36-.011,3.927,0,7.122,4.037,7.122,9S487.807,171.058,483.881,171.058Zm-35,0c-3.926,0-7.121-4.037-7.121-9s3.194-9,7.121-9h.033c.161.666.365,1.354.607,2.045a4.436,4.436,0,0,0-.639-.046c-3.055,0-5.54,3.14-5.54,7s2.485,7,5.54,7a4.936,4.936,0,0,0,3.705-1.8,7.751,7.751,0,0,0,1.8-4.431,15,15,0,0,0,1.447,1.186,9.627,9.627,0,0,1-2.464,5.037A6.28,6.28,0,0,1,448.885,171.058Z" transform="translate(-18924.035 3693.942)" fill="url(#linear-gradient)"/>
      </g>
    </g>
  </g>
</svg>
