<svg xmlns="http://www.w3.org/2000/svg" xmlns:xlink="http://www.w3.org/1999/xlink" width="120" height="120" viewBox="0 0 120 120">
  <defs>
    <clipPath id="clip-path">
      <circle id="Ellipse_312" data-name="Ellipse 312" cx="60" cy="60" r="60" transform="translate(-18828 3787)" fill="#fff"/>
    </clipPath>
    <linearGradient id="linear-gradient" x1="0.373" y1="0.017" x2="0.5" y2="1" gradientUnits="objectBoundingBox">
      <stop offset="0" stop-color="#019fde"/>
      <stop offset="1" stop-color="#40b7c1"/>
    </linearGradient>
  </defs>
  <g id="Group_14117" data-name="Group 14117" transform="translate(18663 -3651)">
    <circle id="Ellipse_311" data-name="Ellipse 311" cx="60" cy="60" r="60" transform="translate(-18663 3651)" fill="#fff" opacity="0.8"/>
    <g id="Mask_Group_40" data-name="Mask Group 40" transform="translate(165 -136)" clip-path="url(#clip-path)">
      <g id="Group_14108" data-name="Group 14108">
        <path id="Path_20772" data-name="Path 20772" d="M86,56.617a23.451,23.451,0,0,1-.667-12.936c2.38-9.8-.057-23.135-.057-23.135C82.448-2.444,69.8,3.07,69.8,3.07,68.18.265,62.716.117,62.716.117,41.6-1.8,35.7,20.546,35.7,20.546s-2.436,13.338-.053,23.135a23.46,23.46,0,0,1-.667,12.936c-1.858,5.682,3.195,11.268,9.731,10.7l4.032-.352a38.6,38.6,0,0,0,1.739-8.66c-7.466-4.825-8.34-13.32-8.34-13.32l0-16.09,0,0v-.006S58.433,24.778,66.7,16.213L78.614,28.47l-.032,16.513s-.919,8.935-8.926,13.678a38.31,38.31,0,0,0,1.672,8.225l4.941.429c6.536.57,11.593-5.016,9.735-10.7" transform="translate(-18828 3801)" fill="#0c0c0c"/>
        <path id="Path_20773" data-name="Path 20773" d="M118.637,114.634l-8.223-23.948a25.271,25.271,0,0,0-16.587-15.96,208.481,208.481,0,0,0-20.479-4.981c.047.05-.118.559-.068.606L60.42,103.835l-13.6-33.484c.056-.056-.439-.436-.383-.495a213.6,213.6,0,0,0-21.019,4.931A25.174,25.174,0,0,0,8.766,90.765L.571,114.634Z" transform="translate(-18828 3801)" fill="#0c0c0c"/>
        <path id="Path_20774" data-name="Path 20774" d="M74.1,69.506c-1.861-1.816-2.942-7.224-3.331-11.563a17.68,17.68,0,0,1-2.248,1.335c.744,6.852,2.425,10.006,3.4,11.309L60.391,101.144,48.178,70.575c1-1.329,2.706-4.56,3.429-11.607a17.367,17.367,0,0,1-2.241-1.45c-.355,4.4-1.445,10.11-3.373,11.985l-.567.552,15.027,37.616L74.659,70.044Z" transform="translate(-18828 3801)" fill="#0c0c0c"/>
        <path id="Path_20775" data-name="Path 20775" d="M69.869,59.334S65.34,67.21,53.92,66.226L50.754,76.858l-3.936-6.507,3.558-11.706s10.731,4.725,19.493.689" transform="translate(-18828 3801)" fill="#0c0c0c"/>
        <path id="Path_20776" data-name="Path 20776" d="M42.141,43.343c-3.6-.246-4.045-1.94-3.969-3.838.079-1.966-.634-4.008-1.827-8.67s5.243-2.258,5.243-2.258l.55,1.362Z" transform="translate(-18828 3801)" fill="#0c0c0c"/>
        <path id="Path_20777" data-name="Path 20777" d="M83.7,30.835c-1.189,4.662-1.9,6.7-1.823,8.67.071,1.771-.307,3.367-3.28,3.771l.015-14.382s-.072-.057-.2-.162l.062-.155s6.414-2.4,5.227,2.258" transform="translate(-18828 3801)" fill="#0c0c0c"/>
        <path id="Path_20778" data-name="Path 20778" d="M60.5,62.624l-.335,0c-9.051-.77-13.8-5.488-16.183-9.31a21.093,21.093,0,0,1-3.02-8.206l-.006-.121,0-16.713,0,0v-.3l.893-.233a75.082,75.082,0,0,0,9.053-3.084c6.515-2.679,11.684-5.881,14.947-9.261l.847-.877L79.8,27.992,79.757,45.1a21.093,21.093,0,0,1-3.02,8.206c-2.387,3.822-7.132,8.54-16.183,9.31Zm-.184-2.363H60.4c14.992-1.3,16.866-14.247,17-15.346l.031-15.966L66.686,17.891c-7.512,7.1-19.921,10.935-23.366,11.9l0,15.127c.13,1.09,2,14.04,17,15.344" transform="translate(-18828 3801)" fill="#0c0c0c"/>
      </g>
    </g>
    <path id="Path_20835" data-name="Path 20835" d="M1.522,1.625a3.659,3.659,0,0,0-.383,1.339A17.946,17.946,0,0,0,1.555,7.7a19.692,19.692,0,0,0,.313-4.734,4.388,4.388,0,0,0-.345-1.337M1.518,0h.059c.649.031,1.457.44,1.776,2.758s-.6,6.759-.6,6.759c-.066.559-.585,1.222-1.174,1.2a1.322,1.322,0,0,1-1.169-1.2S-.668,5.075-.347,2.757C-.035.509.872,0,1.518,0Z" transform="translate(-18615.068 3684.613) rotate(-30)" fill="url(#linear-gradient)"/>
    <path id="Path_20836" data-name="Path 20836" d="M1.522,1.625a3.659,3.659,0,0,0-.383,1.339A17.946,17.946,0,0,0,1.555,7.7a19.692,19.692,0,0,0,.313-4.734,4.388,4.388,0,0,0-.345-1.337M1.518,0h.059c.649.031,1.457.44,1.776,2.758s-.6,6.759-.6,6.759c-.066.559-.585,1.222-1.174,1.2a1.322,1.322,0,0,1-1.169-1.2S-.668,5.075-.347,2.757C-.035.509.872,0,1.518,0Z" transform="translate(-18618.939 3687.776) rotate(-45)" fill="url(#linear-gradient)"/>
  </g>
</svg>
