<svg xmlns="http://www.w3.org/2000/svg" xmlns:xlink="http://www.w3.org/1999/xlink" width="120" height="120" viewBox="0 0 120 120">
  <defs>
    <clipPath id="clip-path">
      <circle id="Ellipse_307" data-name="Ellipse 307" cx="60" cy="60" r="60" transform="translate(-18828 4076)" fill="#fff"/>
    </clipPath>
    <linearGradient id="linear-gradient" x1="0.145" x2="0.981" y2="0.79" gradientUnits="objectBoundingBox">
      <stop offset="0" stop-color="#019fde"/>
      <stop offset="1" stop-color="#40b7c1"/>
    </linearGradient>
  </defs>
  <g id="Group_14113" data-name="Group 14113" transform="translate(18958 -4076)">
    <circle id="Ellipse_306" data-name="Ellipse 306" cx="60" cy="60" r="60" transform="translate(-18958 4076)" fill="#fff" opacity="0.8"/>
    <g id="Mask_Group_37" data-name="Mask Group 37" transform="translate(-130)" clip-path="url(#clip-path)">
      <g id="Group_14112" data-name="Group 14112">
        <path id="Path_20820" data-name="Path 20820" d="M119.209,409.634l-9.353-26.166A25.255,25.255,0,0,0,92.94,367.681c-9.371-2.655-19.433-4.453-21.01-4.729a4.445,4.445,0,0,0,.52.588l-5.01,4.25a12.574,12.574,0,0,1-15.765.414l-6.17-4.713c.037-.037-10.749,2.163-20.625,5.144A25.281,25.281,0,0,0,8.147,384.907L0,409.634Z" transform="translate(-18828 3801)" fill="#0c0c0c"/>
        <path id="Path_20821" data-name="Path 20821" d="M73.261,362.684c-1.645-1.562-2.729-5.869-3.272-9.82-.113-.8-.2-1.58-.266-2.325l-.027-.292a16.741,16.741,0,0,1-2.791,1.6l.573-.006c.071.62.166,1.37.3,2.2.482,3.1,1.427,7.257,3.193,9.6a14.52,14.52,0,0,1-23.492.292c1.873-2.619,2.7-7.4,3.057-10.558.056-.485.1-.928.133-1.321l2.46-.029a16.952,16.952,0,0,1-3.9-2.316l-.765.009-.071,1.093c-.024.369-.053.75-.089,1.137-.375,4.25-1.379,9.324-3.148,11.091l-.694.691.706,1.039a16.832,16.832,0,0,0,13.943,7.366c.121,0,.242,0,.363-.006a16.822,16.822,0,0,0,13.979-7.962l.511-.818Z" transform="translate(-18828 3801)" fill="#0c0c0c"/>
        <path id="Path_20822" data-name="Path 20822" d="M68.9,352.566s-4.43,7.932-15.861,7.091l-2.543,9.188-4.507-4.973L49.4,352.121s10.789,4.591,19.5.445" transform="translate(-18828 3801)" fill="#0c0c0c"/>
        <path id="Path_20823" data-name="Path 20823" d="M59.965,355.981l-.335,0c-9.051-.77-13.8-5.488-16.183-9.31a21.093,21.093,0,0,1-3.02-8.206l-.006-.121,0-16.7,0,0v-.53l1.145-.043c.148-.005,15-.553,28.208-8.1l1.111-.635.544,1.158c.952,2.023,5.668,6.371,7.4,7.877l.408.353-.023,16.75a21.093,21.093,0,0,1-3.02,8.206c-2.387,3.822-7.132,8.54-16.183,9.31Zm-.184-2.363h.083c14.99-1.3,16.866-14.244,17-15.345l.015-15.488a51.918,51.918,0,0,1-6.94-7.212,70.407,70.407,0,0,1-27.156,7.786l0,14.914c.13,1.091,2,14.041,17,15.345" transform="translate(-18828 3801)" fill="#0c0c0c"/>
        <path id="Path_20824" data-name="Path 20824" d="M78.832,321.358c-1.737-1.506-6.451-5.853-7.4-7.877l-.546-1.157-1.11.635c-13.2,7.549-28.059,8.095-28.209,8.1l-1.143.044v.529l0,0,0,16.705.006.121a21.062,21.062,0,0,0,3.018,8.2,19.308,19.308,0,0,0,4.856,5.278,19.03,19.03,0,0,0,2.23,1.426,22.731,22.731,0,0,0,9.1,2.605l.334.006.05-.006a23.527,23.527,0,0,0,7.759-1.937,19.165,19.165,0,0,0,8.423-7.372,21.109,21.109,0,0,0,3.022-8.2l.023-16.749Zm-1.97,16.915A18.185,18.185,0,0,1,69.7,350.246a16.711,16.711,0,0,1-2.791,1.6,21.185,21.185,0,0,1-7.041,1.772h-.083a21.569,21.569,0,0,1-6.657-1.6,17,17,0,0,1-3.9-2.316,18.275,18.275,0,0,1-6.441-11.433l0-14.915a70.379,70.379,0,0,0,27.154-7.785,52.033,52.033,0,0,0,6.941,7.212Z" transform="translate(-18828 3801)" fill="#0c0c0c"/>
        <path id="Path_20825" data-name="Path 20825" d="M41.6,336.7c-3.6-.246-4.045-1.94-3.969-3.838.079-1.967-.634-4.008-1.827-8.67s5.243-2.258,5.243-2.258l.55,1.361Z" transform="translate(-18828 3801)" fill="#0c0c0c"/>
        <path id="Path_20826" data-name="Path 20826" d="M83.163,324.193c-1.189,4.662-1.9,6.7-1.823,8.67.071,1.771-.307,3.367-3.28,3.771l.015-14.382s-.072-.057-.2-.162l.062-.155s6.414-2.4,5.227,2.258" transform="translate(-18828 3801)" fill="#0c0c0c"/>
        <path id="Path_20827" data-name="Path 20827" d="M80.553,328.473a12.941,12.941,0,0,1-2.505,2.4l.009-8.627s-6.429-5.573-7.7-8.267a65.523,65.523,0,0,1-19.493,7.053,62.387,62.387,0,0,1-9.266,1.2v.006l0,0v5.337l-5.252-2.363s-5.437-20.766,11.962-26.729c21.117-7.236,27.518-.346,31.847,4.578,4.478,5.086,7.189,16.737.4,25.4" transform="translate(-18828 3801)" fill="#0c0c0c"/>
        <path id="Path_20828" data-name="Path 20828" d="M75.129,294.142c0-4.876-6.178-8.829-13.8-8.829s-13.8,3.953-13.8,8.829,6.178,8.829,13.8,8.829,13.8-3.953,13.8-8.829" transform="translate(-18828 3801)" fill="#0c0c0c"/>
      </g>
      <path id="Path_20831" data-name="Path 20831" d="M-18273.865,3674.246a31.2,31.2,0,0,1-13.391-2.917l.252-.245c.016.011,2.025.343,5.832.893a36.228,36.228,0,0,0,7.777.45c3.445-.258,11.3-1.773,11.389-1.773.184.105.281.076.334.276C-18261.592,3671.131-18266.648,3674.246-18273.865,3674.246Z" transform="translate(-492 428)" fill="url(#linear-gradient)"/>
    </g>
  </g>
</svg>
