<svg xmlns="http://www.w3.org/2000/svg" xmlns:xlink="http://www.w3.org/1999/xlink" width="120" height="120" viewBox="0 0 120 120">
  <defs>
    <clipPath id="clip-path">
      <circle id="Ellipse_315" data-name="Ellipse 315" cx="60" cy="60" r="60" transform="translate(-18672 4083)" fill="#fff"/>
    </clipPath>
    <linearGradient id="linear-gradient" x1="0.264" x2="0.894" y2="1" gradientUnits="objectBoundingBox">
      <stop offset="0" stop-color="#019fde"/>
      <stop offset="1" stop-color="#40b7c1"/>
    </linearGradient>
  </defs>
  <g id="Group_14116" data-name="Group 14116" transform="translate(18508 -3648)">
    <path id="Path_20829" data-name="Path 20829" d="M60,0A60,60,0,1,1,0,60,60,60,0,0,1,60,0Z" transform="translate(-18508 3648)" fill="#fff" opacity="0.8"/>
    <g id="Mask_Group_41" data-name="Mask Group 41" transform="translate(164 -435)" clip-path="url(#clip-path)">
      <g id="Group_14115" data-name="Group 14115">
        <path id="Path_20765" data-name="Path 20765" d="M207,409.634l3.313-19.794-2.242-7.15,8.294-5.9,8.293,5.9-2.242,7.15,3.313,19.794h48.792l-8.592-25.024a25.231,25.231,0,0,0-16.985-16.077c-8.557-2.426-17.669-4.109-20.358-4.586.047.05.1.1.148.151l-12.86,10.641-13.6-10.641c.059-.056.116-.115.172-.178-2.584.441-12.3,2.165-21.278,4.67a25.148,25.148,0,0,0-17,16.081L155.6,409.634Z" transform="translate(-18828 3801)" fill="#0c0c0c"/>
        <path id="Path_20766" data-name="Path 20766" d="M229.56,363.253c-1.861-1.813-2.942-7.221-3.335-11.56a17.455,17.455,0,0,1-2.238,1.329c.342,3.025,1.178,8.081,3.1,10.913l-11.226,9.289-11.909-9.315c1.973-2.939,2.791-8.229,3.113-11.2a17.216,17.216,0,0,1-2.238-1.45c-.358,4.4-1.445,10.113-3.373,11.991l-.969.942L215.9,376.257l14.6-12.088Z" transform="translate(-18828 3801)" fill="#0c0c0c"/>
        <path id="Path_20767" data-name="Path 20767" d="M225.324,353.081s-4.529,7.876-15.949,6.891l-2.658,9.156-4.444-5.03,3.558-11.706s10.731,4.725,19.493.689" transform="translate(-18828 3801)" fill="#0c0c0c"/>
        <path id="Path_20768" data-name="Path 20768" d="M238.358,324.5l-4.309,1.173,0-3.034-4.2-5.983a105.916,105.916,0,0,1-26.877,0l-5.381,5.983v3.087l-4.5-1.226s-.7-17.3,9.129-23.179c1.276-.762,2.487-1.412,3.63-1.967a22.359,22.359,0,0,1,4.829-1.683,22.929,22.929,0,0,1,5.044-.559,22.653,22.653,0,0,1,9.871,2.242c1.143.555,2.357,1.2,3.63,1.967,9.826,5.883,9.132,23.179,9.132,23.179" transform="translate(-18828 3801)" fill="#0c0c0c"/>
        <path id="Path_20769" data-name="Path 20769" d="M215.959,356.371l-.335-.005c-9.051-.769-13.8-5.487-16.183-9.309a21.093,21.093,0,0,1-3.02-8.206l-.006-.121,0-16.543,6.1-6.782.615.078a104.5,104.5,0,0,0,26.576,0l.707-.09,4.826,6.875-.023,16.583a21.093,21.093,0,0,1-3.02,8.206c-2.387,3.822-7.132,8.54-16.183,9.309Zm-.184-2.363h.083c6.46-.561,11.282-3.321,14.33-8.2a19.01,19.01,0,0,0,2.668-7.145l.016-15.647-3.578-5.1a106.939,106.939,0,0,1-25.853-.012l-4.666,5.189,0,15.57c.131,1.091,2,14.041,17,15.345" transform="translate(-18828 3801)" fill="#0c0c0c"/>
        <path id="Path_20770" data-name="Path 20770" d="M197.6,337.09c-3.6-.246-4.045-1.94-3.969-3.838.079-1.967-.634-4.008-1.827-8.67s5.243-2.258,5.243-2.258l.55,1.361Z" transform="translate(-18828 3801)" fill="#0c0c0c"/>
        <path id="Path_20771" data-name="Path 20771" d="M239.157,324.582c-1.189,4.662-1.9,6.7-1.823,8.67.071,1.771-.307,3.367-3.28,3.771l.015-14.382s-.072-.057-.2-.162l.062-.155s6.414-2.4,5.227,2.258" transform="translate(-18828 3801)" fill="#0c0c0c"/>
      </g>
      <rect id="Rectangle_6103" data-name="Rectangle 6103" width="26" height="29" transform="translate(-18625 4176)" fill="#0c0c0c"/>
      <path id="Path_20830" data-name="Path 20830" d="M-18446.744,3739.305l-8.672,5.527,4.82,6.821-5.82,16.8h19.633l-5.656-16.8,4.656-6.821Z" transform="translate(-165.4 435)" fill="url(#linear-gradient)"/>
    </g>
  </g>
</svg>
