<svg xmlns="http://www.w3.org/2000/svg" xmlns:xlink="http://www.w3.org/1999/xlink" width="120" height="120" viewBox="0 0 120 120">
  <defs>
    <clipPath id="clip-path">
      <circle id="Ellipse_313" data-name="Ellipse 313" cx="60" cy="60" r="60" transform="translate(-18828 3932)" fill="#fff"/>
    </clipPath>
    <linearGradient id="linear-gradient" x1="0.045" y1="0.118" x2="1" y2="0.819" gradientUnits="objectBoundingBox">
      <stop offset="0" stop-color="#019fde"/>
      <stop offset="1" stop-color="#40b7c1"/>
    </linearGradient>
  </defs>
  <g id="Group_14118" data-name="Group 14118" transform="translate(18818 -3651)">
    <circle id="Ellipse_310" data-name="Ellipse 310" cx="60" cy="60" r="60" transform="translate(-18818 3651)" fill="#fff" opacity="0.8"/>
    <g id="Mask_Group_38" data-name="Mask Group 38" transform="translate(10 -281)" clip-path="url(#clip-path)">
      <g id="Group_14107" data-name="Group 14107">
        <path id="Path_20779" data-name="Path 20779" d="M83.635,166.175a7.51,7.51,0,0,0-1.746,5.423l.432,6.217H78.593l0-2.963-.115-8.949c-2.629.848-11.176,1.625-16.539,1.575-8.66-.083-17.278-.892-17.278-.892a56.663,56.663,0,0,0-2.522,8.258v.005l0,0v2.963H38.461l-2.117-1.022S31.3,157.8,42.67,156.254c0,0,3.323-4.947,9.082-4.873,7.162.092,25.645,4.407,33.324-1.131,0,0,3.048,10.715-1.441,15.925" transform="translate(-18828 3801)" fill="#0c0c0c"/>
        <path id="Path_20780" data-name="Path 20780" d="M119.034,261.634l-8.593-25.266a25.211,25.211,0,0,0-16.921-16.12c-9.231-2.645-19.117-4.418-20.895-4.729a5.155,5.155,0,0,0,.656.791l-12.86,10.642-13.6-10.642a5.134,5.134,0,0,0,.671-.812c-1.426.239-11.931,2.04-21.632,4.76A25.256,25.256,0,0,0,8.744,236.433l-8.569,25.2Z" transform="translate(-18828 3801)" fill="#0c0c0c"/>
        <path id="Path_20781" data-name="Path 20781" d="M74.1,215.463c-1.864-1.813-2.942-7.221-3.335-11.563a17.311,17.311,0,0,1-2.241,1.335c.345,3.022,1.181,8.081,3.1,10.913L60.4,225.437l-11.909-9.315c1.974-2.936,2.791-8.229,3.113-11.194a17.3,17.3,0,0,1-2.238-1.453c-.358,4.406-1.448,10.112-3.373,11.988l-.969.945,15.417,12.059,14.6-12.085Z" transform="translate(-18828 3801)" fill="#0c0c0c"/>
        <path id="Path_20782" data-name="Path 20782" d="M60.5,208.583l-.335,0c-9.05-.77-13.8-5.488-16.182-9.31a21.085,21.085,0,0,1-3.021-8.206l-.006-.121,0-16.705.136-.1a52.64,52.64,0,0,1,2.5-8.059l.353-.751.826.078c.087.008,8.671.8,17.179.886,5.4.052,13.716-.728,16.165-1.518l1.523-.491.138,10.566L79.762,191l0,.06a21.1,21.1,0,0,1-3.021,8.206c-2.387,3.822-7.132,8.54-16.183,9.31Zm-.184-2.363H60.4c14.99-1.3,16.866-14.244,17-15.345l.016-16.016-.1-7.455a93.34,93.34,0,0,1-15.389,1.255c-7.034-.067-14.115-.618-16.519-.822a63.36,63.36,0,0,0-2.089,7.141v15.9c.13,1.09,2,14.04,17,15.344" transform="translate(-18828 3801)" fill="#0c0c0c"/>
        <path id="Path_20783" data-name="Path 20783" d="M42.141,189.3c-3.6-.246-4.045-1.94-3.969-3.838.079-1.967-.634-4.008-1.827-8.67s5.243-2.258,5.243-2.258l.55,1.362Z" transform="translate(-18828 3801)" fill="#0c0c0c"/>
        <path id="Path_20784" data-name="Path 20784" d="M83.7,176.794c-1.189,4.662-1.9,6.7-1.823,8.67.071,1.771-.306,3.367-3.28,3.771l.015-14.382s-.072-.057-.2-.162l.062-.155s6.414-2.4,5.227,2.258" transform="translate(-18828 3801)" fill="#0c0c0c"/>
        <path id="Path_20785" data-name="Path 20785" d="M69.868,205.293s-4.529,7.876-15.949,6.892l-2.658,9.155-4.444-5.03L50.375,204.6s10.731,4.725,19.493.689" transform="translate(-18828 3801)" fill="#0c0c0c"/>
        <path id="Path_20786" data-name="Path 20786" d="M77.626,184.608c0,7.58-6.695,12.01-6.695,12.01-1.987-5.271-9.207-5.46-10.942-5.428-1.736-.032-8.956.157-10.944,5.428,0,0-6.694-4.43-6.694-12.01,0,0-2.121,21.251,17.357,22.752v.041c.1-.005.186-.014.281-.021s.185.016.28.021v-.041c19.478-1.5,17.357-22.752,17.357-22.752M60,203.826H59.98a14.925,14.925,0,0,1-8.675-3.155l1.057-2.8c1.125-2.986,6.312-3.137,7.34-3.137l.287,0,.286,0c1.028,0,6.214.151,7.34,3.137l1.057,2.8A14.922,14.922,0,0,1,60,203.826" transform="translate(-18828 3801)" fill="#0c0c0c"/>
      </g>
      <g id="Group_14120" data-name="Group 14120" transform="translate(-11 281)">
        <path id="Union_1" data-name="Union 1" d="M25.5,15.145,18.074,10.9a5,5,0,0,1-8.148,0L2.5,15.145A1,1,0,0,1,1,14.277V1.724A1,1,0,0,1,2.5.855L9.926,5.1a5,5,0,0,1,8.148,0L25.5.855a1,1,0,0,1,1.5.868V14.277a1,1,0,0,1-1,1A.99.99,0,0,1,25.5,15.145Z" transform="translate(-18771 3742)" fill="url(#linear-gradient)"/>
      </g>
    </g>
  </g>
</svg>
