<svg xmlns="http://www.w3.org/2000/svg" xmlns:xlink="http://www.w3.org/1999/xlink" width="120" height="120" viewBox="0 0 120 120">
  <defs>
    <clipPath id="clip-path">
      <circle id="Ellipse_315" data-name="Ellipse 315" cx="60" cy="60" r="60" transform="translate(-18672 4083)" fill="#fff"/>
    </clipPath>
    <clipPath id="clip-path-2">
      <rect id="Rectangle_12821" data-name="Rectangle 12821" width="119.194" height="116.092" transform="translate(0 0)" fill="none"/>
    </clipPath>
    <clipPath id="clip-path-3">
      <rect id="Rectangle_12822" data-name="Rectangle 12822" width="44.848" height="16.611" transform="translate(0 0)" fill="#1aa7d5"/>
    </clipPath>
  </defs>
  <g id="Group_14840" data-name="Group 14840" transform="translate(-2887 -8366)">
    <g id="Group_14116" data-name="Group 14116" transform="translate(21395 4718)">
      <path id="Path_20829" data-name="Path 20829" d="M60,0A60,60,0,1,1,0,60,60,60,0,0,1,60,0Z" transform="translate(-18508 3648)" fill="#fff" opacity="0.8"/>
      <g id="Mask_Group_41" data-name="Mask Group 41" transform="translate(164 -435)" clip-path="url(#clip-path)">
        <g id="Group_14837" data-name="Group 14837" transform="translate(-18672 4094)">
          <g id="Group_14837-2" data-name="Group 14837" clip-path="url(#clip-path-2)">
            <path id="Path_78568" data-name="Path 78568" d="M83.018,30.371l-4.433,3.624.006-5.281s-6.43-5.573-7.7-8.267A34.412,34.412,0,0,1,60.329,22.11a34.4,34.4,0,0,1-10.564-1.663,24.594,24.594,0,0,1-4.277,5.11c-1.751,1.737-3.352,3.148-3.352,3.148v.006l0,0v2.26c-3.06-.151-5.641-.284-5.795-.317,0,0,1.2-14.658,4.741-17.416s3.544-3.347,3.544-3.347l4.43-6.054.789,3.594,3.886-4.578.346,3.494L58.283,0l2.436,5.39,2.068-4.259L64.78,5.317l1.749-3.84,2.386,5.759,1.01-3.151,5.045,5.957s3.618.836,5.883,5.562,2.165,14.767,2.165,14.767" fill="#0c0c0c"/>
            <path id="Path_78569" data-name="Path 78569" d="M119.194,116.092,110.47,90.685A25.229,25.229,0,0,0,93.485,74.608c-8.559-2.426-17.671-4.11-20.358-4.587.047.05.1.1.148.151l-4.711,3.9a13.149,13.149,0,0,1-16.478.225l-5.275-4.126c.06-.056.116-.115.172-.177-2.584.44-12.3,2.165-21.279,4.669a25.149,25.149,0,0,0-17,16.08L0,116.092Z" fill="#0c0c0c"/>
            <path id="Path_78570" data-name="Path 78570" d="M74.1,69.328c-1.674-1.633-2.718-6.179-3.193-10.24-.083-.672-.145-1.323-.2-1.953l-.052-.744a16.318,16.318,0,0,1-3.441,2.025h1.24c.052.548.124,1.2.227,1.912.424,3.131,1.313,7.481,3.1,9.92a14.583,14.583,0,0,1-11.542,5.921h-.2a14.556,14.556,0,0,1-11.739-5.932c1.839-2.521,2.728-7.057,3.141-10.2.083-.6.145-1.147.186-1.622h1.891a16.594,16.594,0,0,1-3.906-2.366h-.154l-.083,1.085c-.041.506-.083,1.033-.145,1.56-.455,4.154-1.519,8.949-3.244,10.633l-.724.692.806,1.168a16.924,16.924,0,0,0,13.971,7.337h.227a16.927,16.927,0,0,0,13.991-7.709L74.79,70Z" fill="#0c0c0c"/>
            <path id="Path_78571" data-name="Path 78571" d="M79.368,27.819c-1.736-1.5-6.448-5.848-7.409-7.874L71.514,19l-.981.32a33.1,33.1,0,0,1-20.409,0L49.143,19l-.445.94c-.919,1.953-5.6,6.335-7.336,7.864l-.414.289V44.807l.011.114a21.218,21.218,0,0,0,3.017,8.215,19.138,19.138,0,0,0,5.26,5.559,18.5,18.5,0,0,0,2.211,1.344,23.186,23.186,0,0,0,8.711,2.4l.341.01.052-.01a23.282,23.282,0,0,0,8.132-2.108,18.85,18.85,0,0,0,2.222-1.24,19.256,19.256,0,0,0,5.828-5.952,21.238,21.238,0,0,0,3.017-8.215l.021-16.75ZM77.394,44.735a18.86,18.86,0,0,1-2.666,7.14,16.761,16.761,0,0,1-4.071,4.516,16.276,16.276,0,0,1-3.441,2.025A21.376,21.376,0,0,1,60.4,60.08h-.083a21.086,21.086,0,0,1-6.789-1.664,16.574,16.574,0,0,1-3.906-2.366,18.334,18.334,0,0,1-6.3-11.315v-15.5c1.343-1.209,5.311-4.857,7-7.378a35.447,35.447,0,0,0,20.037,0c1.705,2.563,5.693,6.179,7.068,7.388Z" fill="#0c0c0c"/>
            <path id="Path_78572" data-name="Path 78572" d="M42.135,43.164c-3.6-.246-4.045-1.94-3.969-3.838.079-1.967-.634-4.008-1.827-8.67S41.582,28.4,41.582,28.4l.55,1.361Z" fill="#0c0c0c"/>
            <path id="Path_78573" data-name="Path 78573" d="M83.695,30.656c-1.189,4.662-1.9,6.7-1.823,8.67.071,1.771-.307,3.367-3.28,3.771l.015-14.382s-.072-.057-.2-.162l.062-.155s6.414-2.4,5.227,2.258" fill="#0c0c0c"/>
            <path id="Path_78574" data-name="Path 78574" d="M69.862,59.155s-4.529,7.876-15.949,6.892L51.255,75.2l-4.444-5.03,3.558-11.706s10.731,4.725,19.493.689" fill="#0c0c0c"/>
          </g>
        </g>
      </g>
    </g>
    <g id="Group_14839" data-name="Group 14839" transform="translate(2924.576 8406.862)">
      <g id="Group_14838" data-name="Group 14838" transform="translate(0 0.001)" clip-path="url(#clip-path-3)">
        <path id="Path_78575" data-name="Path 78575" d="M22.424,4.624c.171.024.382.061.645.115,1.675.343,1.546,3.265,2.663,6.314s3.265,6.014,9.88,5.5,7.431-6.444,7.646-7.689a12.574,12.574,0,0,1,.73-2.448l.649-.649a.718.718,0,0,0,.21-.508V2.213a.717.717,0,0,0-.557-.7c-1.08-.248-3.646-.8-6.96-1.285-4.425-.644-8.935.215-9.88.859a6.481,6.481,0,0,1-1.718.859H19.116A6.481,6.481,0,0,1,17.4,1.087c-.945-.645-5.455-1.5-9.88-.859C4.2.71,1.637,1.265.557,1.513a.717.717,0,0,0-.557.7V5.257a.719.719,0,0,0,.21.508l.649.649a12.553,12.553,0,0,1,.73,2.448c.215,1.246,1.031,7.174,7.646,7.689s8.763-2.448,9.88-5.5.988-5.971,2.663-6.314c.262-.054.474-.091.645-.115M38.533,14.7c-2.148,1.375-6.807,1.3-9.58-.43-2.62-1.632-4.038-9.193-1.632-11.426S34.967,1.13,34.967,1.13c.515.043,6.83.129,7.045,5.069S40.681,13.33,38.533,14.7M2.835,6.2C3.05,1.259,9.365,1.173,9.88,1.13c0,0,5.241-.516,7.646,1.718s.988,9.794-1.633,11.426c-2.772,1.727-7.431,1.8-9.579.43S2.62,11.139,2.835,6.2" transform="translate(0 0)" fill="#1aa7d5"/>
      </g>
    </g>
  </g>
</svg>
